<svg t="1691567578629" class="icon" viewBox="0 0 1024 1024" version="1.1" xmlns="http://www.w3.org/2000/svg" p-id="4854" width="200" height="200"><path d="M252.16 878.421333c0-35.84 29.013333-64.853333 64.853333-64.853333a64.64 64.64 0 1 1-64.853333 64.853333z m480 0c0-35.84 29.013333-64.853333 64.853333-64.853333a64.64 64.64 0 1 1-64.853333 64.853333z" fill="#59597e" opacity=".4" p-id="4855"></path><path d="M861.44 270.890667c26.026667 0 43.093333 8.96 60.16 28.586666 17.066667 19.626667 20.053333 47.786667 16.213333 73.344l-40.533333 279.893334a108.885333 108.885333 0 0 1-107.946667 93.44H323.84c-56.746667 0-103.68-43.52-108.373333-99.797334L176.213333 181.248l-64.426666-11.093333a32.128 32.128 0 0 1-26.026667-36.693334c2.986667-17.493333 19.626667-29.013333 37.12-26.453333l101.802667 15.36c14.506667 2.602667 25.173333 14.506667 26.453333 29.013333l8.106667 95.573334a26.026667 26.026667 0 0 0 26.026666 23.936H861.44z m-258.56 221.824h118.186667c17.92 0 32-14.506667 32-32 0-17.92-14.08-32-32-32h-118.186667c-17.92 0-32 14.08-32 32 0 17.493333 14.08 32 32 32z" fill="#59597e" p-id="4856"></path></svg>